<svg xmlns="http://www.w3.org/2000/svg" width="800" height="223" viewBox="0 0 800 223" role="img" aria-label="783 contributions GitHub sur la période affichée, 129 jours actifs"><rect width="800" height="223" fill="#ffffff"/><g font-family="-apple-system,BlinkMacSystemFont,Segoe UI,Arial,sans-serif"><text x="24" y="33" fill="#1f2937" font-size="17" font-weight="600">Une année sur GitHub</text><text x="24" y="60" fill="#315b82" font-size="14" font-weight="600">783 contributions</text><text x="190" y="60" fill="#68778a" font-size="13">129 jours actifs</text><rect x="45.0" y="91.0" width="10.5" height="10.5" rx="2" fill="#eef2f6"><title>2025-10-05 · 0 contributions</title></rect><rect x="45.0" y="104.5" width="10.5" height="10.5" rx="2" fill="#eef2f6"><title>2025-10-06 · 0 contributions</title></rect><rect x="45.0" y="118.0" width="10.5" height="10.5" rx="2" fill="#eef2f6"><title>2025-10-07 · 0 contributions</title></rect><rect x="45.0" y="131.5" width="10.5" height="10.5" rx="2" fill="#d5e2ee"><title>2025-10-08 · 1 contributions</title></rect><rect x="45.0" y="145.0" width="10.5" height="10.5" rx="2" fill="#eef2f6"><title>2025-10-09 · 0 contributions</title></rect><rect x="45.0" y="158.5" width="10.5" height="10.5" rx="2" fill="#eef2f6"><title>2025-10-10 · 0 contributions</title></rect><rect x="45.0" y="172.0" width="10.5" height="10.5" rx="2" fill="#d5e2ee"><title>2025-10-11 · 2 contributions</title></rect><rect x="58.5" y="91.0" width="10.5" height="10.5" rx="2" fill="#eef2f6"><title>2025-10-12 · 0 contributions</title></rect><rect x="58.5" y="104.5" width="10.5" height="10.5" rx="2" fill="#d5e2ee"><title>2025-10-13 · 7 contributions</title></rect><rect x="58.5" y="118.0" width="10.5" height="10.5" rx="2" fill="#d5e2ee"><title>2025-10-14 · 2 contributions</title></rect><rect x="58.5" y="131.5" width="10.5" height="10.5" rx="2" fill="#eef2f6"><title>2025-10-15 · 0 contributions</title></rect><rect x="58.5" y="145.0" width="10.5" height="10.5" rx="2" fill="#eef2f6"><title>2025-10-16 · 0 contributions</title></rect><rect x="58.5" y="158.5" width="10.5" height="10.5" rx="2" fill="#eef2f6"><title>2025-10-17 · 0 contributions</title></rect><rect x="58.5" y="172.0" width="10.5" height="10.5" rx="2" fill="#d5e2ee"><title>2025-10-18 · 1 contributions</title></rect><rect x="72.0" y="91.0" width="10.5" height="10.5" rx="2" fill="#d5e2ee"><title>2025-10-19 · 2 contributions</title></rect><rect x="72.0" y="104.5" width="10.5" height="10.5" rx="2" fill="#d5e2ee"><title>2025-10-20 · 4 contributions</title></rect><rect x="72.0" y="118.0" width="10.5" height="10.5" rx="2" fill="#d5e2ee"><title>2025-10-21 · 8 contributions</title></rect><rect x="72.0" y="131.5" width="10.5" height="10.5" rx="2" fill="#eef2f6"><title>2025-10-22 · 0 contributions</title></rect><rect x="72.0" y="145.0" width="10.5" height="10.5" rx="2" fill="#eef2f6"><title>2025-10-23 · 0 contributions</title></rect><rect x="72.0" y="158.5" width="10.5" height="10.5" rx="2" fill="#eef2f6"><title>2025-10-24 · 0 contributions</title></rect><rect x="72.0" y="172.0" width="10.5" height="10.5" rx="2" fill="#eef2f6"><title>2025-10-25 · 0 contributions</title></rect><rect x="85.5" y="91.0" width="10.5" height="10.5" rx="2" fill="#eef2f6"><title>2025-10-26 · 0 contributions</title></rect><rect x="85.5" y="104.5" width="10.5" height="10.5" rx="2" fill="#d5e2ee"><title>2025-10-27 · 4 contributions</title></rect><rect x="85.5" y="118.0" width="10.5" height="10.5" rx="2" fill="#eef2f6"><title>2025-10-28 · 0 contributions</title></rect><rect x="85.5" y="131.5" width="10.5" height="10.5" rx="2" fill="#eef2f6"><title>2025-10-29 · 0 contributions</title></rect><rect x="85.5" y="145.0" width="10.5" height="10.5" rx="2" fill="#d5e2ee"><title>2025-10-30 · 1 contributions</title></rect><rect x="85.5" y="158.5" width="10.5" height="10.5" rx="2" fill="#eef2f6"><title>2025-10-31 · 0 contributions</title></rect><text x="85.5" y="81" font-size="10" fill="#68778a">nov.</text><rect x="85.5" y="172.0" width="10.5" height="10.5" rx="2" fill="#eef2f6"><title>2025-11-01 · 0 contributions</title></rect><rect x="99.0" y="91.0" width="10.5" height="10.5" rx="2" fill="#eef2f6"><title>2025-11-02 · 0 contributions</title></rect><rect x="99.0" y="104.5" width="10.5" height="10.5" rx="2" fill="#eef2f6"><title>2025-11-03 · 0 contributions</title></rect><rect x="99.0" y="118.0" width="10.5" height="10.5" rx="2" fill="#eef2f6"><title>2025-11-04 · 0 contributions</title></rect><rect x="99.0" y="131.5" width="10.5" height="10.5" rx="2" fill="#eef2f6"><title>2025-11-05 · 0 contributions</title></rect><rect x="99.0" y="145.0" width="10.5" height="10.5" rx="2" fill="#eef2f6"><title>2025-11-06 · 0 contributions</title></rect><rect x="99.0" y="158.5" width="10.5" height="10.5" rx="2" fill="#eef2f6"><title>2025-11-07 · 0 contributions</title></rect><rect x="99.0" y="172.0" width="10.5" height="10.5" rx="2" fill="#eef2f6"><title>2025-11-08 · 0 contributions</title></rect><rect x="112.5" y="91.0" width="10.5" height="10.5" rx="2" fill="#eef2f6"><title>2025-11-09 · 0 contributions</title></rect><rect x="112.5" y="104.5" width="10.5" height="10.5" rx="2" fill="#eef2f6"><title>2025-11-10 · 0 contributions</title></rect><rect x="112.5" y="118.0" width="10.5" height="10.5" rx="2" fill="#eef2f6"><title>2025-11-11 · 0 contributions</title></rect><rect x="112.5" y="131.5" width="10.5" height="10.5" rx="2" fill="#eef2f6"><title>2025-11-12 · 0 contributions</title></rect><rect x="112.5" y="145.0" width="10.5" height="10.5" rx="2" fill="#eef2f6"><title>2025-11-13 · 0 contributions</title></rect><rect x="112.5" y="158.5" width="10.5" height="10.5" rx="2" fill="#eef2f6"><title>2025-11-14 · 0 contributions</title></rect><rect x="112.5" y="172.0" width="10.5" height="10.5" rx="2" fill="#eef2f6"><title>2025-11-15 · 0 contributions</title></rect><rect x="126.0" y="91.0" width="10.5" height="10.5" rx="2" fill="#eef2f6"><title>2025-11-16 · 0 contributions</title></rect><rect x="126.0" y="104.5" width="10.5" height="10.5" rx="2" fill="#eef2f6"><title>2025-11-17 · 0 contributions</title></rect><rect x="126.0" y="118.0" width="10.5" height="10.5" rx="2" fill="#eef2f6"><title>2025-11-18 · 0 contributions</title></rect><rect x="126.0" y="131.5" width="10.5" height="10.5" rx="2" fill="#eef2f6"><title>2025-11-19 · 0 contributions</title></rect><rect x="126.0" y="145.0" width="10.5" height="10.5" rx="2" fill="#eef2f6"><title>2025-11-20 · 0 contributions</title></rect><rect x="126.0" y="158.5" width="10.5" height="10.5" rx="2" fill="#eef2f6"><title>2025-11-21 · 0 contributions</title></rect><rect x="126.0" y="172.0" width="10.5" height="10.5" rx="2" fill="#eef2f6"><title>2025-11-22 · 0 contributions</title></rect><rect x="139.5" y="91.0" width="10.5" height="10.5" rx="2" fill="#eef2f6"><title>2025-11-23 · 0 contributions</title></rect><rect x="139.5" y="104.5" width="10.5" height="10.5" rx="2" fill="#d5e2ee"><title>2025-11-24 · 1 contributions</title></rect><rect x="139.5" y="118.0" width="10.5" height="10.5" rx="2" fill="#eef2f6"><title>2025-11-25 · 0 contributions</title></rect><rect x="139.5" y="131.5" width="10.5" height="10.5" rx="2" fill="#d5e2ee"><title>2025-11-26 · 2 contributions</title></rect><rect x="139.5" y="145.0" width="10.5" height="10.5" rx="2" fill="#eef2f6"><title>2025-11-27 · 0 contributions</title></rect><rect x="139.5" y="158.5" width="10.5" height="10.5" rx="2" fill="#eef2f6"><title>2025-11-28 · 0 contributions</title></rect><rect x="139.5" y="172.0" width="10.5" height="10.5" rx="2" fill="#d5e2ee"><title>2025-11-29 · 5 contributions</title></rect><rect x="153.0" y="91.0" width="10.5" height="10.5" rx="2" fill="#eef2f6"><title>2025-11-30 · 0 contributions</title></rect><text x="153.0" y="81" font-size="10" fill="#68778a">déc.</text><rect x="153.0" y="104.5" width="10.5" height="10.5" rx="2" fill="#d5e2ee"><title>2025-12-01 · 1 contributions</title></rect><rect x="153.0" y="118.0" width="10.5" height="10.5" rx="2" fill="#d5e2ee"><title>2025-12-02 · 2 contributions</title></rect><rect x="153.0" y="131.5" width="10.5" height="10.5" rx="2" fill="#eef2f6"><title>2025-12-03 · 0 contributions</title></rect><rect x="153.0" y="145.0" width="10.5" height="10.5" rx="2" fill="#eef2f6"><title>2025-12-04 · 0 contributions</title></rect><rect x="153.0" y="158.5" width="10.5" height="10.5" rx="2" fill="#eef2f6"><title>2025-12-05 · 0 contributions</title></rect><rect x="153.0" y="172.0" width="10.5" height="10.5" rx="2" fill="#d5e2ee"><title>2025-12-06 · 5 contributions</title></rect><rect x="166.5" y="91.0" width="10.5" height="10.5" rx="2" fill="#eef2f6"><title>2025-12-07 · 0 contributions</title></rect><rect x="166.5" y="104.5" width="10.5" height="10.5" rx="2" fill="#d5e2ee"><title>2025-12-08 · 1 contributions</title></rect><rect x="166.5" y="118.0" width="10.5" height="10.5" rx="2" fill="#eef2f6"><title>2025-12-09 · 0 contributions</title></rect><rect x="166.5" y="131.5" width="10.5" height="10.5" rx="2" fill="#d5e2ee"><title>2025-12-10 · 3 contributions</title></rect><rect x="166.5" y="145.0" width="10.5" height="10.5" rx="2" fill="#d5e2ee"><title>2025-12-11 · 3 contributions</title></rect><rect x="166.5" y="158.5" width="10.5" height="10.5" rx="2" fill="#d5e2ee"><title>2025-12-12 · 1 contributions</title></rect><rect x="166.5" y="172.0" width="10.5" height="10.5" rx="2" fill="#d5e2ee"><title>2025-12-13 · 1 contributions</title></rect><rect x="180.0" y="91.0" width="10.5" height="10.5" rx="2" fill="#eef2f6"><title>2025-12-14 · 0 contributions</title></rect><rect x="180.0" y="104.5" width="10.5" height="10.5" rx="2" fill="#d5e2ee"><title>2025-12-15 · 11 contributions</title></rect><rect x="180.0" y="118.0" width="10.5" height="10.5" rx="2" fill="#d5e2ee"><title>2025-12-16 · 5 contributions</title></rect><rect x="180.0" y="131.5" width="10.5" height="10.5" rx="2" fill="#eef2f6"><title>2025-12-17 · 0 contributions</title></rect><rect x="180.0" y="145.0" width="10.5" height="10.5" rx="2" fill="#eef2f6"><title>2025-12-18 · 0 contributions</title></rect><rect x="180.0" y="158.5" width="10.5" height="10.5" rx="2" fill="#eef2f6"><title>2025-12-19 · 0 contributions</title></rect><rect x="180.0" y="172.0" width="10.5" height="10.5" rx="2" fill="#eef2f6"><title>2025-12-20 · 0 contributions</title></rect><rect x="193.5" y="91.0" width="10.5" height="10.5" rx="2" fill="#eef2f6"><title>2025-12-21 · 0 contributions</title></rect><rect x="193.5" y="104.5" width="10.5" height="10.5" rx="2" fill="#eef2f6"><title>2025-12-22 · 0 contributions</title></rect><rect x="193.5" y="118.0" width="10.5" height="10.5" rx="2" fill="#eef2f6"><title>2025-12-23 · 0 contributions</title></rect><rect x="193.5" y="131.5" width="10.5" height="10.5" rx="2" fill="#eef2f6"><title>2025-12-24 · 0 contributions</title></rect><rect x="193.5" y="145.0" width="10.5" height="10.5" rx="2" fill="#eef2f6"><title>2025-12-25 · 0 contributions</title></rect><rect x="193.5" y="158.5" width="10.5" height="10.5" rx="2" fill="#eef2f6"><title>2025-12-26 · 0 contributions</title></rect><rect x="193.5" y="172.0" width="10.5" height="10.5" rx="2" fill="#eef2f6"><title>2025-12-27 · 0 contributions</title></rect><rect x="207.0" y="91.0" width="10.5" height="10.5" rx="2" fill="#eef2f6"><title>2025-12-28 · 0 contributions</title></rect><rect x="207.0" y="104.5" width="10.5" height="10.5" rx="2" fill="#eef2f6"><title>2025-12-29 · 0 contributions</title></rect><rect x="207.0" y="118.0" width="10.5" height="10.5" rx="2" fill="#eef2f6"><title>2025-12-30 · 0 contributions</title></rect><rect x="207.0" y="131.5" width="10.5" height="10.5" rx="2" fill="#eef2f6"><title>2025-12-31 · 0 contributions</title></rect><text x="207.0" y="81" font-size="10" fill="#68778a">janv.</text><rect x="207.0" y="145.0" width="10.5" height="10.5" rx="2" fill="#eef2f6"><title>2026-01-01 · 0 contributions</title></rect><rect x="207.0" y="158.5" width="10.5" height="10.5" rx="2" fill="#eef2f6"><title>2026-01-02 · 0 contributions</title></rect><rect x="207.0" y="172.0" width="10.5" height="10.5" rx="2" fill="#eef2f6"><title>2026-01-03 · 0 contributions</title></rect><rect x="220.5" y="91.0" width="10.5" height="10.5" rx="2" fill="#eef2f6"><title>2026-01-04 · 0 contributions</title></rect><rect x="220.5" y="104.5" width="10.5" height="10.5" rx="2" fill="#eef2f6"><title>2026-01-05 · 0 contributions</title></rect><rect x="220.5" y="118.0" width="10.5" height="10.5" rx="2" fill="#eef2f6"><title>2026-01-06 · 0 contributions</title></rect><rect x="220.5" y="131.5" width="10.5" height="10.5" rx="2" fill="#eef2f6"><title>2026-01-07 · 0 contributions</title></rect><rect x="220.5" y="145.0" width="10.5" height="10.5" rx="2" fill="#eef2f6"><title>2026-01-08 · 0 contributions</title></rect><rect x="220.5" y="158.5" width="10.5" height="10.5" rx="2" fill="#eef2f6"><title>2026-01-09 · 0 contributions</title></rect><rect x="220.5" y="172.0" width="10.5" height="10.5" rx="2" fill="#d5e2ee"><title>2026-01-10 · 6 contributions</title></rect><rect x="234.0" y="91.0" width="10.5" height="10.5" rx="2" fill="#eef2f6"><title>2026-01-11 · 0 contributions</title></rect><rect x="234.0" y="104.5" width="10.5" height="10.5" rx="2" fill="#d5e2ee"><title>2026-01-12 · 2 contributions</title></rect><rect x="234.0" y="118.0" width="10.5" height="10.5" rx="2" fill="#d5e2ee"><title>2026-01-13 · 12 contributions</title></rect><rect x="234.0" y="131.5" width="10.5" height="10.5" rx="2" fill="#d5e2ee"><title>2026-01-14 · 3 contributions</title></rect><rect x="234.0" y="145.0" width="10.5" height="10.5" rx="2" fill="#d5e2ee"><title>2026-01-15 · 2 contributions</title></rect><rect x="234.0" y="158.5" width="10.5" height="10.5" rx="2" fill="#d5e2ee"><title>2026-01-16 · 5 contributions</title></rect><rect x="234.0" y="172.0" width="10.5" height="10.5" rx="2" fill="#eef2f6"><title>2026-01-17 · 0 contributions</title></rect><rect x="247.5" y="91.0" width="10.5" height="10.5" rx="2" fill="#eef2f6"><title>2026-01-18 · 0 contributions</title></rect><rect x="247.5" y="104.5" width="10.5" height="10.5" rx="2" fill="#eef2f6"><title>2026-01-19 · 0 contributions</title></rect><rect x="247.5" y="118.0" width="10.5" height="10.5" rx="2" fill="#d5e2ee"><title>2026-01-20 · 1 contributions</title></rect><rect x="247.5" y="131.5" width="10.5" height="10.5" rx="2" fill="#eef2f6"><title>2026-01-21 · 0 contributions</title></rect><rect x="247.5" y="145.0" width="10.5" height="10.5" rx="2" fill="#d5e2ee"><title>2026-01-22 · 6 contributions</title></rect><rect x="247.5" y="158.5" width="10.5" height="10.5" rx="2" fill="#eef2f6"><title>2026-01-23 · 0 contributions</title></rect><rect x="247.5" y="172.0" width="10.5" height="10.5" rx="2" fill="#d5e2ee"><title>2026-01-24 · 11 contributions</title></rect><rect x="261.0" y="91.0" width="10.5" height="10.5" rx="2" fill="#eef2f6"><title>2026-01-25 · 0 contributions</title></rect><rect x="261.0" y="104.5" width="10.5" height="10.5" rx="2" fill="#d5e2ee"><title>2026-01-26 · 5 contributions</title></rect><rect x="261.0" y="118.0" width="10.5" height="10.5" rx="2" fill="#eef2f6"><title>2026-01-27 · 0 contributions</title></rect><rect x="261.0" y="131.5" width="10.5" height="10.5" rx="2" fill="#eef2f6"><title>2026-01-28 · 0 contributions</title></rect><rect x="261.0" y="145.0" width="10.5" height="10.5" rx="2" fill="#d5e2ee"><title>2026-01-29 · 7 contributions</title></rect><rect x="261.0" y="158.5" width="10.5" height="10.5" rx="2" fill="#eef2f6"><title>2026-01-30 · 0 contributions</title></rect><rect x="261.0" y="172.0" width="10.5" height="10.5" rx="2" fill="#eef2f6"><title>2026-01-31 · 0 contributions</title></rect><text x="274.5" y="81" font-size="10" fill="#68778a">févr.</text><rect x="274.5" y="91.0" width="10.5" height="10.5" rx="2" fill="#eef2f6"><title>2026-02-01 · 0 contributions</title></rect><rect x="274.5" y="104.5" width="10.5" height="10.5" rx="2" fill="#d5e2ee"><title>2026-02-02 · 4 contributions</title></rect><rect x="274.5" y="118.0" width="10.5" height="10.5" rx="2" fill="#d5e2ee"><title>2026-02-03 · 1 contributions</title></rect><rect x="274.5" y="131.5" width="10.5" height="10.5" rx="2" fill="#eef2f6"><title>2026-02-04 · 0 contributions</title></rect><rect x="274.5" y="145.0" width="10.5" height="10.5" rx="2" fill="#d5e2ee"><title>2026-02-05 · 1 contributions</title></rect><rect x="274.5" y="158.5" width="10.5" height="10.5" rx="2" fill="#d5e2ee"><title>2026-02-06 · 1 contributions</title></rect><rect x="274.5" y="172.0" width="10.5" height="10.5" rx="2" fill="#eef2f6"><title>2026-02-07 · 0 contributions</title></rect><rect x="288.0" y="91.0" width="10.5" height="10.5" rx="2" fill="#eef2f6"><title>2026-02-08 · 0 contributions</title></rect><rect x="288.0" y="104.5" width="10.5" height="10.5" rx="2" fill="#eef2f6"><title>2026-02-09 · 0 contributions</title></rect><rect x="288.0" y="118.0" width="10.5" height="10.5" rx="2" fill="#d5e2ee"><title>2026-02-10 · 3 contributions</title></rect><rect x="288.0" y="131.5" width="10.5" height="10.5" rx="2" fill="#eef2f6"><title>2026-02-11 · 0 contributions</title></rect><rect x="288.0" y="145.0" width="10.5" height="10.5" rx="2" fill="#d5e2ee"><title>2026-02-12 · 1 contributions</title></rect><rect x="288.0" y="158.5" width="10.5" height="10.5" rx="2" fill="#eef2f6"><title>2026-02-13 · 0 contributions</title></rect><rect x="288.0" y="172.0" width="10.5" height="10.5" rx="2" fill="#d5e2ee"><title>2026-02-14 · 7 contributions</title></rect><rect x="301.5" y="91.0" width="10.5" height="10.5" rx="2" fill="#eef2f6"><title>2026-02-15 · 0 contributions</title></rect><rect x="301.5" y="104.5" width="10.5" height="10.5" rx="2" fill="#d5e2ee"><title>2026-02-16 · 8 contributions</title></rect><rect x="301.5" y="118.0" width="10.5" height="10.5" rx="2" fill="#d5e2ee"><title>2026-02-17 · 3 contributions</title></rect><rect x="301.5" y="131.5" width="10.5" height="10.5" rx="2" fill="#d5e2ee"><title>2026-02-18 · 3 contributions</title></rect><rect x="301.5" y="145.0" width="10.5" height="10.5" rx="2" fill="#eef2f6"><title>2026-02-19 · 0 contributions</title></rect><rect x="301.5" y="158.5" width="10.5" height="10.5" rx="2" fill="#eef2f6"><title>2026-02-20 · 0 contributions</title></rect><rect x="301.5" y="172.0" width="10.5" height="10.5" rx="2" fill="#d5e2ee"><title>2026-02-21 · 7 contributions</title></rect><rect x="315.0" y="91.0" width="10.5" height="10.5" rx="2" fill="#eef2f6"><title>2026-02-22 · 0 contributions</title></rect><rect x="315.0" y="104.5" width="10.5" height="10.5" rx="2" fill="#d5e2ee"><title>2026-02-23 · 7 contributions</title></rect><rect x="315.0" y="118.0" width="10.5" height="10.5" rx="2" fill="#d5e2ee"><title>2026-02-24 · 4 contributions</title></rect><rect x="315.0" y="131.5" width="10.5" height="10.5" rx="2" fill="#eef2f6"><title>2026-02-25 · 0 contributions</title></rect><rect x="315.0" y="145.0" width="10.5" height="10.5" rx="2" fill="#d5e2ee"><title>2026-02-26 · 2 contributions</title></rect><rect x="315.0" y="158.5" width="10.5" height="10.5" rx="2" fill="#eef2f6"><title>2026-02-27 · 0 contributions</title></rect><rect x="315.0" y="172.0" width="10.5" height="10.5" rx="2" fill="#eef2f6"><title>2026-02-28 · 0 contributions</title></rect><text x="328.5" y="81" font-size="10" fill="#68778a">mars</text><rect x="328.5" y="91.0" width="10.5" height="10.5" rx="2" fill="#eef2f6"><title>2026-03-01 · 0 contributions</title></rect><rect x="328.5" y="104.5" width="10.5" height="10.5" rx="2" fill="#eef2f6"><title>2026-03-02 · 0 contributions</title></rect><rect x="328.5" y="118.0" width="10.5" height="10.5" rx="2" fill="#eef2f6"><title>2026-03-03 · 0 contributions</title></rect><rect x="328.5" y="131.5" width="10.5" height="10.5" rx="2" fill="#eef2f6"><title>2026-03-04 · 0 contributions</title></rect><rect x="328.5" y="145.0" width="10.5" height="10.5" rx="2" fill="#eef2f6"><title>2026-03-05 · 0 contributions</title></rect><rect x="328.5" y="158.5" width="10.5" height="10.5" rx="2" fill="#eef2f6"><title>2026-03-06 · 0 contributions</title></rect><rect x="328.5" y="172.0" width="10.5" height="10.5" rx="2" fill="#d5e2ee"><title>2026-03-07 · 5 contributions</title></rect><rect x="342.0" y="91.0" width="10.5" height="10.5" rx="2" fill="#eef2f6"><title>2026-03-08 · 0 contributions</title></rect><rect x="342.0" y="104.5" width="10.5" height="10.5" rx="2" fill="#eef2f6"><title>2026-03-09 · 0 contributions</title></rect><rect x="342.0" y="118.0" width="10.5" height="10.5" rx="2" fill="#eef2f6"><title>2026-03-10 · 0 contributions</title></rect><rect x="342.0" y="131.5" width="10.5" height="10.5" rx="2" fill="#eef2f6"><title>2026-03-11 · 0 contributions</title></rect><rect x="342.0" y="145.0" width="10.5" height="10.5" rx="2" fill="#eef2f6"><title>2026-03-12 · 0 contributions</title></rect><rect x="342.0" y="158.5" width="10.5" height="10.5" rx="2" fill="#d5e2ee"><title>2026-03-13 · 2 contributions</title></rect><rect x="342.0" y="172.0" width="10.5" height="10.5" rx="2" fill="#eef2f6"><title>2026-03-14 · 0 contributions</title></rect><rect x="355.5" y="91.0" width="10.5" height="10.5" rx="2" fill="#eef2f6"><title>2026-03-15 · 0 contributions</title></rect><rect x="355.5" y="104.5" width="10.5" height="10.5" rx="2" fill="#eef2f6"><title>2026-03-16 · 0 contributions</title></rect><rect x="355.5" y="118.0" width="10.5" height="10.5" rx="2" fill="#d5e2ee"><title>2026-03-17 · 1 contributions</title></rect><rect x="355.5" y="131.5" width="10.5" height="10.5" rx="2" fill="#eef2f6"><title>2026-03-18 · 0 contributions</title></rect><rect x="355.5" y="145.0" width="10.5" height="10.5" rx="2" fill="#d5e2ee"><title>2026-03-19 · 2 contributions</title></rect><rect x="355.5" y="158.5" width="10.5" height="10.5" rx="2" fill="#d5e2ee"><title>2026-03-20 · 1 contributions</title></rect><rect x="355.5" y="172.0" width="10.5" height="10.5" rx="2" fill="#eef2f6"><title>2026-03-21 · 0 contributions</title></rect><rect x="369.0" y="91.0" width="10.5" height="10.5" rx="2" fill="#eef2f6"><title>2026-03-22 · 0 contributions</title></rect><rect x="369.0" y="104.5" width="10.5" height="10.5" rx="2" fill="#eef2f6"><title>2026-03-23 · 0 contributions</title></rect><rect x="369.0" y="118.0" width="10.5" height="10.5" rx="2" fill="#eef2f6"><title>2026-03-24 · 0 contributions</title></rect><rect x="369.0" y="131.5" width="10.5" height="10.5" rx="2" fill="#d5e2ee"><title>2026-03-25 · 1 contributions</title></rect><rect x="369.0" y="145.0" width="10.5" height="10.5" rx="2" fill="#d5e2ee"><title>2026-03-26 · 1 contributions</title></rect><rect x="369.0" y="158.5" width="10.5" height="10.5" rx="2" fill="#eef2f6"><title>2026-03-27 · 0 contributions</title></rect><rect x="369.0" y="172.0" width="10.5" height="10.5" rx="2" fill="#d5e2ee"><title>2026-03-28 · 3 contributions</title></rect><rect x="382.5" y="91.0" width="10.5" height="10.5" rx="2" fill="#eef2f6"><title>2026-03-29 · 0 contributions</title></rect><rect x="382.5" y="104.5" width="10.5" height="10.5" rx="2" fill="#eef2f6"><title>2026-03-30 · 0 contributions</title></rect><rect x="382.5" y="118.0" width="10.5" height="10.5" rx="2" fill="#d5e2ee"><title>2026-03-31 · 3 contributions</title></rect><text x="382.5" y="81" font-size="10" fill="#68778a">avr.</text><rect x="382.5" y="131.5" width="10.5" height="10.5" rx="2" fill="#d5e2ee"><title>2026-04-01 · 3 contributions</title></rect><rect x="382.5" y="145.0" width="10.5" height="10.5" rx="2" fill="#eef2f6"><title>2026-04-02 · 0 contributions</title></rect><rect x="382.5" y="158.5" width="10.5" height="10.5" rx="2" fill="#d5e2ee"><title>2026-04-03 · 3 contributions</title></rect><rect x="382.5" y="172.0" width="10.5" height="10.5" rx="2" fill="#eef2f6"><title>2026-04-04 · 0 contributions</title></rect><rect x="396.0" y="91.0" width="10.5" height="10.5" rx="2" fill="#eef2f6"><title>2026-04-05 · 0 contributions</title></rect><rect x="396.0" y="104.5" width="10.5" height="10.5" rx="2" fill="#eef2f6"><title>2026-04-06 · 0 contributions</title></rect><rect x="396.0" y="118.0" width="10.5" height="10.5" rx="2" fill="#d5e2ee"><title>2026-04-07 · 4 contributions</title></rect><rect x="396.0" y="131.5" width="10.5" height="10.5" rx="2" fill="#eef2f6"><title>2026-04-08 · 0 contributions</title></rect><rect x="396.0" y="145.0" width="10.5" height="10.5" rx="2" fill="#d5e2ee"><title>2026-04-09 · 2 contributions</title></rect><rect x="396.0" y="158.5" width="10.5" height="10.5" rx="2" fill="#eef2f6"><title>2026-04-10 · 0 contributions</title></rect><rect x="396.0" y="172.0" width="10.5" height="10.5" rx="2" fill="#eef2f6"><title>2026-04-11 · 0 contributions</title></rect><rect x="409.5" y="91.0" width="10.5" height="10.5" rx="2" fill="#eef2f6"><title>2026-04-12 · 0 contributions</title></rect><rect x="409.5" y="104.5" width="10.5" height="10.5" rx="2" fill="#d5e2ee"><title>2026-04-13 · 3 contributions</title></rect><rect x="409.5" y="118.0" width="10.5" height="10.5" rx="2" fill="#d5e2ee"><title>2026-04-14 · 2 contributions</title></rect><rect x="409.5" y="131.5" width="10.5" height="10.5" rx="2" fill="#eef2f6"><title>2026-04-15 · 0 contributions</title></rect><rect x="409.5" y="145.0" width="10.5" height="10.5" rx="2" fill="#eef2f6"><title>2026-04-16 · 0 contributions</title></rect><rect x="409.5" y="158.5" width="10.5" height="10.5" rx="2" fill="#eef2f6"><title>2026-04-17 · 0 contributions</title></rect><rect x="409.5" y="172.0" width="10.5" height="10.5" rx="2" fill="#eef2f6"><title>2026-04-18 · 0 contributions</title></rect><rect x="423.0" y="91.0" width="10.5" height="10.5" rx="2" fill="#eef2f6"><title>2026-04-19 · 0 contributions</title></rect><rect x="423.0" y="104.5" width="10.5" height="10.5" rx="2" fill="#eef2f6"><title>2026-04-20 · 0 contributions</title></rect><rect x="423.0" y="118.0" width="10.5" height="10.5" rx="2" fill="#eef2f6"><title>2026-04-21 · 0 contributions</title></rect><rect x="423.0" y="131.5" width="10.5" height="10.5" rx="2" fill="#eef2f6"><title>2026-04-22 · 0 contributions</title></rect><rect x="423.0" y="145.0" width="10.5" height="10.5" rx="2" fill="#eef2f6"><title>2026-04-23 · 0 contributions</title></rect><rect x="423.0" y="158.5" width="10.5" height="10.5" rx="2" fill="#eef2f6"><title>2026-04-24 · 0 contributions</title></rect><rect x="423.0" y="172.0" width="10.5" height="10.5" rx="2" fill="#d5e2ee"><title>2026-04-25 · 4 contributions</title></rect><rect x="436.5" y="91.0" width="10.5" height="10.5" rx="2" fill="#eef2f6"><title>2026-04-26 · 0 contributions</title></rect><rect x="436.5" y="104.5" width="10.5" height="10.5" rx="2" fill="#d5e2ee"><title>2026-04-27 · 5 contributions</title></rect><rect x="436.5" y="118.0" width="10.5" height="10.5" rx="2" fill="#d5e2ee"><title>2026-04-28 · 2 contributions</title></rect><rect x="436.5" y="131.5" width="10.5" height="10.5" rx="2" fill="#d5e2ee"><title>2026-04-29 · 2 contributions</title></rect><rect x="436.5" y="145.0" width="10.5" height="10.5" rx="2" fill="#eef2f6"><title>2026-04-30 · 0 contributions</title></rect><text x="436.5" y="81" font-size="10" fill="#68778a">mai</text><rect x="436.5" y="158.5" width="10.5" height="10.5" rx="2" fill="#d5e2ee"><title>2026-05-01 · 8 contributions</title></rect><rect x="436.5" y="172.0" width="10.5" height="10.5" rx="2" fill="#eef2f6"><title>2026-05-02 · 0 contributions</title></rect><rect x="450.0" y="91.0" width="10.5" height="10.5" rx="2" fill="#eef2f6"><title>2026-05-03 · 0 contributions</title></rect><rect x="450.0" y="104.5" width="10.5" height="10.5" rx="2" fill="#eef2f6"><title>2026-05-04 · 0 contributions</title></rect><rect x="450.0" y="118.0" width="10.5" height="10.5" rx="2" fill="#eef2f6"><title>2026-05-05 · 0 contributions</title></rect><rect x="450.0" y="131.5" width="10.5" height="10.5" rx="2" fill="#eef2f6"><title>2026-05-06 · 0 contributions</title></rect><rect x="450.0" y="145.0" width="10.5" height="10.5" rx="2" fill="#d5e2ee"><title>2026-05-07 · 2 contributions</title></rect><rect x="450.0" y="158.5" width="10.5" height="10.5" rx="2" fill="#d5e2ee"><title>2026-05-08 · 2 contributions</title></rect><rect x="450.0" y="172.0" width="10.5" height="10.5" rx="2" fill="#d5e2ee"><title>2026-05-09 · 1 contributions</title></rect><rect x="463.5" y="91.0" width="10.5" height="10.5" rx="2" fill="#eef2f6"><title>2026-05-10 · 0 contributions</title></rect><rect x="463.5" y="104.5" width="10.5" height="10.5" rx="2" fill="#d5e2ee"><title>2026-05-11 · 1 contributions</title></rect><rect x="463.5" y="118.0" width="10.5" height="10.5" rx="2" fill="#eef2f6"><title>2026-05-12 · 0 contributions</title></rect><rect x="463.5" y="131.5" width="10.5" height="10.5" rx="2" fill="#eef2f6"><title>2026-05-13 · 0 contributions</title></rect><rect x="463.5" y="145.0" width="10.5" height="10.5" rx="2" fill="#eef2f6"><title>2026-05-14 · 0 contributions</title></rect><rect x="463.5" y="158.5" width="10.5" height="10.5" rx="2" fill="#eef2f6"><title>2026-05-15 · 0 contributions</title></rect><rect x="463.5" y="172.0" width="10.5" height="10.5" rx="2" fill="#eef2f6"><title>2026-05-16 · 0 contributions</title></rect><rect x="477.0" y="91.0" width="10.5" height="10.5" rx="2" fill="#eef2f6"><title>2026-05-17 · 0 contributions</title></rect><rect x="477.0" y="104.5" width="10.5" height="10.5" rx="2" fill="#eef2f6"><title>2026-05-18 · 0 contributions</title></rect><rect x="477.0" y="118.0" width="10.5" height="10.5" rx="2" fill="#eef2f6"><title>2026-05-19 · 0 contributions</title></rect><rect x="477.0" y="131.5" width="10.5" height="10.5" rx="2" fill="#eef2f6"><title>2026-05-20 · 0 contributions</title></rect><rect x="477.0" y="145.0" width="10.5" height="10.5" rx="2" fill="#d5e2ee"><title>2026-05-21 · 1 contributions</title></rect><rect x="477.0" y="158.5" width="10.5" height="10.5" rx="2" fill="#eef2f6"><title>2026-05-22 · 0 contributions</title></rect><rect x="477.0" y="172.0" width="10.5" height="10.5" rx="2" fill="#eef2f6"><title>2026-05-23 · 0 contributions</title></rect><rect x="490.5" y="91.0" width="10.5" height="10.5" rx="2" fill="#eef2f6"><title>2026-05-24 · 0 contributions</title></rect><rect x="490.5" y="104.5" width="10.5" height="10.5" rx="2" fill="#eef2f6"><title>2026-05-25 · 0 contributions</title></rect><rect x="490.5" y="118.0" width="10.5" height="10.5" rx="2" fill="#eef2f6"><title>2026-05-26 · 0 contributions</title></rect><rect x="490.5" y="131.5" width="10.5" height="10.5" rx="2" fill="#eef2f6"><title>2026-05-27 · 0 contributions</title></rect><rect x="490.5" y="145.0" width="10.5" height="10.5" rx="2" fill="#d5e2ee"><title>2026-05-28 · 2 contributions</title></rect><rect x="490.5" y="158.5" width="10.5" height="10.5" rx="2" fill="#eef2f6"><title>2026-05-29 · 0 contributions</title></rect><rect x="490.5" y="172.0" width="10.5" height="10.5" rx="2" fill="#eef2f6"><title>2026-05-30 · 0 contributions</title></rect><rect x="504.0" y="91.0" width="10.5" height="10.5" rx="2" fill="#eef2f6"><title>2026-05-31 · 0 contributions</title></rect><text x="504.0" y="81" font-size="10" fill="#68778a">juin</text><rect x="504.0" y="104.5" width="10.5" height="10.5" rx="2" fill="#d5e2ee"><title>2026-06-01 · 3 contributions</title></rect><rect x="504.0" y="118.0" width="10.5" height="10.5" rx="2" fill="#d5e2ee"><title>2026-06-02 · 5 contributions</title></rect><rect x="504.0" y="131.5" width="10.5" height="10.5" rx="2" fill="#315b82"><title>2026-06-03 · 39 contributions</title></rect><rect x="504.0" y="145.0" width="10.5" height="10.5" rx="2" fill="#eef2f6"><title>2026-06-04 · 0 contributions</title></rect><rect x="504.0" y="158.5" width="10.5" height="10.5" rx="2" fill="#d5e2ee"><title>2026-06-05 · 3 contributions</title></rect><rect x="504.0" y="172.0" width="10.5" height="10.5" rx="2" fill="#eef2f6"><title>2026-06-06 · 0 contributions</title></rect><rect x="517.5" y="91.0" width="10.5" height="10.5" rx="2" fill="#eef2f6"><title>2026-06-07 · 0 contributions</title></rect><rect x="517.5" y="104.5" width="10.5" height="10.5" rx="2" fill="#a9c3da"><title>2026-06-08 · 19 contributions</title></rect><rect x="517.5" y="118.0" width="10.5" height="10.5" rx="2" fill="#d5e2ee"><title>2026-06-09 · 7 contributions</title></rect><rect x="517.5" y="131.5" width="10.5" height="10.5" rx="2" fill="#a9c3da"><title>2026-06-10 · 14 contributions</title></rect><rect x="517.5" y="145.0" width="10.5" height="10.5" rx="2" fill="#d5e2ee"><title>2026-06-11 · 1 contributions</title></rect><rect x="517.5" y="158.5" width="10.5" height="10.5" rx="2" fill="#d5e2ee"><title>2026-06-12 · 1 contributions</title></rect><rect x="517.5" y="172.0" width="10.5" height="10.5" rx="2" fill="#d5e2ee"><title>2026-06-13 · 10 contributions</title></rect><rect x="531.0" y="91.0" width="10.5" height="10.5" rx="2" fill="#eef2f6"><title>2026-06-14 · 0 contributions</title></rect><rect x="531.0" y="104.5" width="10.5" height="10.5" rx="2" fill="#a9c3da"><title>2026-06-15 · 18 contributions</title></rect><rect x="531.0" y="118.0" width="10.5" height="10.5" rx="2" fill="#a9c3da"><title>2026-06-16 · 15 contributions</title></rect><rect x="531.0" y="131.5" width="10.5" height="10.5" rx="2" fill="#d5e2ee"><title>2026-06-17 · 9 contributions</title></rect><rect x="531.0" y="145.0" width="10.5" height="10.5" rx="2" fill="#eef2f6"><title>2026-06-18 · 0 contributions</title></rect><rect x="531.0" y="158.5" width="10.5" height="10.5" rx="2" fill="#eef2f6"><title>2026-06-19 · 0 contributions</title></rect><rect x="531.0" y="172.0" width="10.5" height="10.5" rx="2" fill="#d5e2ee"><title>2026-06-20 · 4 contributions</title></rect><rect x="544.5" y="91.0" width="10.5" height="10.5" rx="2" fill="#d5e2ee"><title>2026-06-21 · 11 contributions</title></rect><rect x="544.5" y="104.5" width="10.5" height="10.5" rx="2" fill="#d5e2ee"><title>2026-06-22 · 6 contributions</title></rect><rect x="544.5" y="118.0" width="10.5" height="10.5" rx="2" fill="#eef2f6"><title>2026-06-23 · 0 contributions</title></rect><rect x="544.5" y="131.5" width="10.5" height="10.5" rx="2" fill="#d5e2ee"><title>2026-06-24 · 4 contributions</title></rect><rect x="544.5" y="145.0" width="10.5" height="10.5" rx="2" fill="#eef2f6"><title>2026-06-25 · 0 contributions</title></rect><rect x="544.5" y="158.5" width="10.5" height="10.5" rx="2" fill="#eef2f6"><title>2026-06-26 · 0 contributions</title></rect><rect x="544.5" y="172.0" width="10.5" height="10.5" rx="2" fill="#a9c3da"><title>2026-06-27 · 17 contributions</title></rect><rect x="558.0" y="91.0" width="10.5" height="10.5" rx="2" fill="#eef2f6"><title>2026-06-28 · 0 contributions</title></rect><rect x="558.0" y="104.5" width="10.5" height="10.5" rx="2" fill="#d5e2ee"><title>2026-06-29 · 4 contributions</title></rect><rect x="558.0" y="118.0" width="10.5" height="10.5" rx="2" fill="#eef2f6"><title>2026-06-30 · 0 contributions</title></rect><text x="558.0" y="81" font-size="10" fill="#68778a">juil.</text><rect x="558.0" y="131.5" width="10.5" height="10.5" rx="2" fill="#d5e2ee"><title>2026-07-01 · 3 contributions</title></rect><rect x="558.0" y="145.0" width="10.5" height="10.5" rx="2" fill="#eef2f6"><title>2026-07-02 · 0 contributions</title></rect><rect x="558.0" y="158.5" width="10.5" height="10.5" rx="2" fill="#eef2f6"><title>2026-07-03 · 0 contributions</title></rect><rect x="558.0" y="172.0" width="10.5" height="10.5" rx="2" fill="#eef2f6"><title>2026-07-04 · 0 contributions</title></rect><rect x="571.5" y="91.0" width="10.5" height="10.5" rx="2" fill="#eef2f6"><title>2026-07-05 · 0 contributions</title></rect><rect x="571.5" y="104.5" width="10.5" height="10.5" rx="2" fill="#eef2f6"><title>2026-07-06 · 0 contributions</title></rect><rect x="571.5" y="118.0" width="10.5" height="10.5" rx="2" fill="#eef2f6"><title>2026-07-07 · 0 contributions</title></rect><rect x="571.5" y="131.5" width="10.5" height="10.5" rx="2" fill="#eef2f6"><title>2026-07-08 · 0 contributions</title></rect><rect x="571.5" y="145.0" width="10.5" height="10.5" rx="2" fill="#eef2f6"><title>2026-07-09 · 0 contributions</title></rect><rect x="571.5" y="158.5" width="10.5" height="10.5" rx="2" fill="#eef2f6"><title>2026-07-10 · 0 contributions</title></rect><rect x="571.5" y="172.0" width="10.5" height="10.5" rx="2" fill="#eef2f6"><title>2026-07-11 · 0 contributions</title></rect><rect x="585.0" y="91.0" width="10.5" height="10.5" rx="2" fill="#eef2f6"><title>2026-07-12 · 0 contributions</title></rect><rect x="585.0" y="104.5" width="10.5" height="10.5" rx="2" fill="#eef2f6"><title>2026-07-13 · 0 contributions</title></rect><rect x="585.0" y="118.0" width="10.5" height="10.5" rx="2" fill="#eef2f6"><title>2026-07-14 · 0 contributions</title></rect><rect x="585.0" y="131.5" width="10.5" height="10.5" rx="2" fill="#eef2f6"><title>2026-07-15 · 0 contributions</title></rect><rect x="585.0" y="145.0" width="10.5" height="10.5" rx="2" fill="#eef2f6"><title>2026-07-16 · 0 contributions</title></rect><rect x="585.0" y="158.5" width="10.5" height="10.5" rx="2" fill="#eef2f6"><title>2026-07-17 · 0 contributions</title></rect><rect x="585.0" y="172.0" width="10.5" height="10.5" rx="2" fill="#eef2f6"><title>2026-07-18 · 0 contributions</title></rect><rect x="598.5" y="91.0" width="10.5" height="10.5" rx="2" fill="#eef2f6"><title>2026-07-19 · 0 contributions</title></rect><rect x="598.5" y="104.5" width="10.5" height="10.5" rx="2" fill="#eef2f6"><title>2026-07-20 · 0 contributions</title></rect><rect x="598.5" y="118.0" width="10.5" height="10.5" rx="2" fill="#eef2f6"><title>2026-07-21 · 0 contributions</title></rect><rect x="598.5" y="131.5" width="10.5" height="10.5" rx="2" fill="#eef2f6"><title>2026-07-22 · 0 contributions</title></rect><rect x="598.5" y="145.0" width="10.5" height="10.5" rx="2" fill="#eef2f6"><title>2026-07-23 · 0 contributions</title></rect><rect x="598.5" y="158.5" width="10.5" height="10.5" rx="2" fill="#eef2f6"><title>2026-07-24 · 0 contributions</title></rect><rect x="598.5" y="172.0" width="10.5" height="10.5" rx="2" fill="#eef2f6"><title>2026-07-25 · 0 contributions</title></rect><rect x="612.0" y="91.0" width="10.5" height="10.5" rx="2" fill="#eef2f6"><title>2026-07-26 · 0 contributions</title></rect><rect x="612.0" y="104.5" width="10.5" height="10.5" rx="2" fill="#eef2f6"><title>2026-07-27 · 0 contributions</title></rect><rect x="612.0" y="118.0" width="10.5" height="10.5" rx="2" fill="#eef2f6"><title>2026-07-28 · 0 contributions</title></rect><rect x="612.0" y="131.5" width="10.5" height="10.5" rx="2" fill="#eef2f6"><title>2026-07-29 · 0 contributions</title></rect><rect x="612.0" y="145.0" width="10.5" height="10.5" rx="2" fill="#eef2f6"><title>2026-07-30 · 0 contributions</title></rect><rect x="612.0" y="158.5" width="10.5" height="10.5" rx="2" fill="#eef2f6"><title>2026-07-31 · 0 contributions</title></rect><text x="612.0" y="81" font-size="10" fill="#68778a">août</text><rect x="612.0" y="172.0" width="10.5" height="10.5" rx="2" fill="#d5e2ee"><title>2026-08-01 · 3 contributions</title></rect><rect x="625.5" y="91.0" width="10.5" height="10.5" rx="2" fill="#eef2f6"><title>2026-08-02 · 0 contributions</title></rect><rect x="625.5" y="104.5" width="10.5" height="10.5" rx="2" fill="#d5e2ee"><title>2026-08-03 · 4 contributions</title></rect><rect x="625.5" y="118.0" width="10.5" height="10.5" rx="2" fill="#d5e2ee"><title>2026-08-04 · 4 contributions</title></rect><rect x="625.5" y="131.5" width="10.5" height="10.5" rx="2" fill="#eef2f6"><title>2026-08-05 · 0 contributions</title></rect><rect x="625.5" y="145.0" width="10.5" height="10.5" rx="2" fill="#d5e2ee"><title>2026-08-06 · 2 contributions</title></rect><rect x="625.5" y="158.5" width="10.5" height="10.5" rx="2" fill="#d5e2ee"><title>2026-08-07 · 9 contributions</title></rect><rect x="625.5" y="172.0" width="10.5" height="10.5" rx="2" fill="#d5e2ee"><title>2026-08-08 · 1 contributions</title></rect><rect x="639.0" y="91.0" width="10.5" height="10.5" rx="2" fill="#d5e2ee"><title>2026-08-09 · 3 contributions</title></rect><rect x="639.0" y="104.5" width="10.5" height="10.5" rx="2" fill="#d5e2ee"><title>2026-08-10 · 6 contributions</title></rect><rect x="639.0" y="118.0" width="10.5" height="10.5" rx="2" fill="#a9c3da"><title>2026-08-11 · 14 contributions</title></rect><rect x="639.0" y="131.5" width="10.5" height="10.5" rx="2" fill="#709abb"><title>2026-08-12 · 26 contributions</title></rect><rect x="639.0" y="145.0" width="10.5" height="10.5" rx="2" fill="#d5e2ee"><title>2026-08-13 · 7 contributions</title></rect><rect x="639.0" y="158.5" width="10.5" height="10.5" rx="2" fill="#d5e2ee"><title>2026-08-14 · 4 contributions</title></rect><rect x="639.0" y="172.0" width="10.5" height="10.5" rx="2" fill="#eef2f6"><title>2026-08-15 · 0 contributions</title></rect><rect x="652.5" y="91.0" width="10.5" height="10.5" rx="2" fill="#709abb"><title>2026-08-16 · 25 contributions</title></rect><rect x="652.5" y="104.5" width="10.5" height="10.5" rx="2" fill="#a9c3da"><title>2026-08-17 · 14 contributions</title></rect><rect x="652.5" y="118.0" width="10.5" height="10.5" rx="2" fill="#d5e2ee"><title>2026-08-18 · 8 contributions</title></rect><rect x="652.5" y="131.5" width="10.5" height="10.5" rx="2" fill="#a9c3da"><title>2026-08-19 · 17 contributions</title></rect><rect x="652.5" y="145.0" width="10.5" height="10.5" rx="2" fill="#315b82"><title>2026-08-20 · 48 contributions</title></rect><rect x="652.5" y="158.5" width="10.5" height="10.5" rx="2" fill="#a9c3da"><title>2026-08-21 · 18 contributions</title></rect><rect x="652.5" y="172.0" width="10.5" height="10.5" rx="2" fill="#d5e2ee"><title>2026-08-22 · 3 contributions</title></rect><rect x="666.0" y="91.0" width="10.5" height="10.5" rx="2" fill="#eef2f6"><title>2026-08-23 · 0 contributions</title></rect><rect x="666.0" y="104.5" width="10.5" height="10.5" rx="2" fill="#d5e2ee"><title>2026-08-24 · 6 contributions</title></rect><rect x="666.0" y="118.0" width="10.5" height="10.5" rx="2" fill="#d5e2ee"><title>2026-08-25 · 7 contributions</title></rect><rect x="666.0" y="131.5" width="10.5" height="10.5" rx="2" fill="#d5e2ee"><title>2026-08-26 · 5 contributions</title></rect><rect x="666.0" y="145.0" width="10.5" height="10.5" rx="2" fill="#eef2f6"><title>2026-08-27 · 0 contributions</title></rect><rect x="666.0" y="158.5" width="10.5" height="10.5" rx="2" fill="#d5e2ee"><title>2026-08-28 · 2 contributions</title></rect><rect x="666.0" y="172.0" width="10.5" height="10.5" rx="2" fill="#d5e2ee"><title>2026-08-29 · 11 contributions</title></rect><rect x="679.5" y="91.0" width="10.5" height="10.5" rx="2" fill="#eef2f6"><title>2026-08-30 · 0 contributions</title></rect><rect x="679.5" y="104.5" width="10.5" height="10.5" rx="2" fill="#eef2f6"><title>2026-08-31 · 0 contributions</title></rect><text x="679.5" y="81" font-size="10" fill="#68778a">sept.</text><rect x="679.5" y="118.0" width="10.5" height="10.5" rx="2" fill="#eef2f6"><title>2026-09-01 · 0 contributions</title></rect><rect x="679.5" y="131.5" width="10.5" height="10.5" rx="2" fill="#eef2f6"><title>2026-09-02 · 0 contributions</title></rect><rect x="679.5" y="145.0" width="10.5" height="10.5" rx="2" fill="#eef2f6"><title>2026-09-03 · 0 contributions</title></rect><rect x="679.5" y="158.5" width="10.5" height="10.5" rx="2" fill="#eef2f6"><title>2026-09-04 · 0 contributions</title></rect><rect x="679.5" y="172.0" width="10.5" height="10.5" rx="2" fill="#eef2f6"><title>2026-09-05 · 0 contributions</title></rect><rect x="693.0" y="91.0" width="10.5" height="10.5" rx="2" fill="#eef2f6"><title>2026-09-06 · 0 contributions</title></rect><rect x="693.0" y="104.5" width="10.5" height="10.5" rx="2" fill="#eef2f6"><title>2026-09-07 · 0 contributions</title></rect><rect x="693.0" y="118.0" width="10.5" height="10.5" rx="2" fill="#eef2f6"><title>2026-09-08 · 0 contributions</title></rect><rect x="693.0" y="131.5" width="10.5" height="10.5" rx="2" fill="#eef2f6"><title>2026-09-09 · 0 contributions</title></rect><rect x="693.0" y="145.0" width="10.5" height="10.5" rx="2" fill="#eef2f6"><title>2026-09-10 · 0 contributions</title></rect><rect x="693.0" y="158.5" width="10.5" height="10.5" rx="2" fill="#eef2f6"><title>2026-09-11 · 0 contributions</title></rect><rect x="693.0" y="172.0" width="10.5" height="10.5" rx="2" fill="#d5e2ee"><title>2026-09-12 · 8 contributions</title></rect><rect x="706.5" y="91.0" width="10.5" height="10.5" rx="2" fill="#d5e2ee"><title>2026-09-13 · 11 contributions</title></rect><rect x="706.5" y="104.5" width="10.5" height="10.5" rx="2" fill="#d5e2ee"><title>2026-09-14 · 9 contributions</title></rect><rect x="706.5" y="118.0" width="10.5" height="10.5" rx="2" fill="#d5e2ee"><title>2026-09-15 · 1 contributions</title></rect><rect x="706.5" y="131.5" width="10.5" height="10.5" rx="2" fill="#eef2f6"><title>2026-09-16 · 0 contributions</title></rect><rect x="706.5" y="145.0" width="10.5" height="10.5" rx="2" fill="#eef2f6"><title>2026-09-17 · 0 contributions</title></rect><rect x="706.5" y="158.5" width="10.5" height="10.5" rx="2" fill="#eef2f6"><title>2026-09-18 · 0 contributions</title></rect><rect x="706.5" y="172.0" width="10.5" height="10.5" rx="2" fill="#eef2f6"><title>2026-09-19 · 0 contributions</title></rect><rect x="720.0" y="91.0" width="10.5" height="10.5" rx="2" fill="#d5e2ee"><title>2026-09-20 · 2 contributions</title></rect><rect x="720.0" y="104.5" width="10.5" height="10.5" rx="2" fill="#a9c3da"><title>2026-09-21 · 15 contributions</title></rect><rect x="720.0" y="118.0" width="10.5" height="10.5" rx="2" fill="#d5e2ee"><title>2026-09-22 · 12 contributions</title></rect><rect x="720.0" y="131.5" width="10.5" height="10.5" rx="2" fill="#a9c3da"><title>2026-09-23 · 22 contributions</title></rect><rect x="720.0" y="145.0" width="10.5" height="10.5" rx="2" fill="#eef2f6"><title>2026-09-24 · 0 contributions</title></rect><rect x="720.0" y="158.5" width="10.5" height="10.5" rx="2" fill="#eef2f6"><title>2026-09-25 · 0 contributions</title></rect><rect x="720.0" y="172.0" width="10.5" height="10.5" rx="2" fill="#eef2f6"><title>2026-09-26 · 0 contributions</title></rect><rect x="733.5" y="91.0" width="10.5" height="10.5" rx="2" fill="#eef2f6"><title>2026-09-27 · 0 contributions</title></rect><rect x="733.5" y="104.5" width="10.5" height="10.5" rx="2" fill="#d5e2ee"><title>2026-09-28 · 5 contributions</title></rect><rect x="733.5" y="118.0" width="10.5" height="10.5" rx="2" fill="#eef2f6"><title>2026-09-29 · 0 contributions</title></rect><rect x="733.5" y="131.5" width="10.5" height="10.5" rx="2" fill="#d5e2ee"><title>2026-09-30 · 4 contributions</title></rect><text x="733.5" y="81" font-size="10" fill="#68778a">oct.</text><rect x="733.5" y="145.0" width="10.5" height="10.5" rx="2" fill="#eef2f6"><title>2026-10-01 · 0 contributions</title></rect><rect x="733.5" y="158.5" width="10.5" height="10.5" rx="2" fill="#eef2f6"><title>2026-10-02 · 0 contributions</title></rect><rect x="733.5" y="172.0" width="10.5" height="10.5" rx="2" fill="#eef2f6"><title>2026-10-03 · 0 contributions</title></rect><rect x="747.0" y="91.0" width="10.5" height="10.5" rx="2" fill="#eef2f6"><title>2026-10-04 · 0 contributions</title></rect><rect x="747.0" y="104.5" width="10.5" height="10.5" rx="2" fill="#d5e2ee"><title>2026-10-05 · 3 contributions</title></rect><text x="12" y="112.5" font-size="9" fill="#68778a">lun.</text><text x="12" y="139.5" font-size="9" fill="#68778a">mer.</text><text x="12" y="166.5" font-size="9" fill="#68778a">ven.</text><text x="24" y="204" fill="#68778a" font-size="10">05/10/2025 — 05/10/2026 · Source : calendrier public GitHub</text><text x="607" y="204" fill="#68778a" font-size="10">Moins</text><rect x="644" y="195" width="10" height="10" rx="2" fill="#eef2f6"/><rect x="657" y="195" width="10" height="10" rx="2" fill="#d5e2ee"/><rect x="670" y="195" width="10" height="10" rx="2" fill="#a9c3da"/><rect x="683" y="195" width="10" height="10" rx="2" fill="#709abb"/><rect x="696" y="195" width="10" height="10" rx="2" fill="#315b82"/><text x="716" y="204" fill="#68778a" font-size="10">Plus</text></g></svg>