<svg xmlns="http://www.w3.org/2000/svg" width="395" height="230" viewBox="0 0 395 230" role="img" aria-label="Portfolio full stack"><rect x=".5" y=".5" width="394" height="229" rx="7" fill="white" stroke="#dce3eb"/><path d="M22 26h16" stroke="#315b82" stroke-width="2"/><g font-family="-apple-system,BlinkMacSystemFont,Segoe UI,Arial,sans-serif"><text x="47" y="29" font-size="9" letter-spacing=".8" fill="#71869c">WEB &amp; ARCHITECTURE</text><text x="22" y="72" font-size="24" font-weight="600" fill="#233143">Portfolio full stack</text><text x="22" y="106" font-size="13.5" fill="#475569">Interface React et API Spring Boot administrable.</text><text x="22" y="127" font-size="13.5" fill="#475569">Publication, versions et sécurité du contenu.</text><text x="22" y="153" font-size="9.5" fill="#7a8797">Frontend et backend complémentaires</text><text x="22" y="179" font-size="11" font-weight="600" fill="#315b82">React · Spring Boot · PostgreSQL</text><text x="22" y="210" font-size="11" fill="#315b82">Explorer le projet</text><path d="M121 212l9-9m-7 0h7v7" fill="none" stroke="#315b82" stroke-width="1.2" stroke-linecap="round"/><text x="352" y="212" font-size="9" fill="#8c9aaa">02</text></g><g transform="translate(334,12) scale(.74)" fill="white" stroke="#527697" stroke-width="1.5" stroke-linecap="round" stroke-linejoin="round"><rect x="2" y="3" width="34" height="23" rx="3"/><path d="M2 10h34M12 32h14M19 26v6M14 15l-4 3 4 3m10-6 4 3-4 3"/><circle cx="7" cy="6.5" r=".6"/></g></svg>